<svg width="800" height="800" viewBox="0 0 800 800" fill="none" xmlns="http://www.w3.org/2000/svg">
<path fill-rule="evenodd" clip-rule="evenodd" d="M279.333 56C191.888 56 121 126.888 121 214.333V696.493C121 738.563 155.104 772.667 197.173 772.667C212.211 772.667 226.913 768.217 239.426 759.873L389.553 659.787C403.55 650.457 421.783 650.457 435.78 659.787L585.907 759.873C598.42 768.217 613.123 772.667 628.16 772.667C670.23 772.667 704.333 738.563 704.333 696.493V214.333C704.333 126.888 633.447 56 546 56H279.333ZM312.667 239.333C298.86 239.333 287.667 250.526 287.667 264.333C287.667 278.14 298.86 289.333 312.667 289.333H512.667C526.473 289.333 537.667 278.14 537.667 264.333C537.667 250.526 526.473 239.333 512.667 239.333H312.667Z" fill="black"/>
<path fill-rule="evenodd" clip-rule="evenodd" d="M254.333 28C166.888 28 96 98.8883 96 186.333V668.493C96 710.563 130.104 744.667 172.173 744.667C187.211 744.667 201.913 740.217 214.426 731.873L364.553 631.787C378.55 622.457 396.783 622.457 410.78 631.787L560.907 731.873C573.42 740.217 588.123 744.667 603.16 744.667C645.23 744.667 679.333 710.563 679.333 668.493V186.333C679.333 98.8883 608.447 28 521 28H254.333ZM287.667 211.333C273.86 211.333 262.667 222.526 262.667 236.333C262.667 250.14 273.86 261.333 287.667 261.333H487.667C501.473 261.333 512.667 250.14 512.667 236.333C512.667 222.526 501.473 211.333 487.667 211.333H287.667Z" fill="white"/>
</svg>
